<?xml version="1.0" standalone="no"?>
<!DOCTYPE svg PUBLIC "-//W3C//DTD SVG 20010904//EN"
 "http://www.w3.org/TR/2001/REC-SVG-20010904/DTD/svg10.dtd">
<svg version="1.0" xmlns="http://www.w3.org/2000/svg"
 width="360.000000pt" height="360.000000pt" viewBox="0 0 360.000000 360.000000"
 preserveAspectRatio="xMidYMid meet">
<metadata>
Created by potrace 1.16, written by Peter Selinger 2001-2019
</metadata>
<g transform="translate(0.000000,360.000000) scale(0.100000,-0.100000)"
fill="#000000" stroke="none">
<path d="M1659 2585 c-42 -8 -88 -19 -102 -24 l-26 -10 16 -44 16 -43 66 18
c90 25 243 24 343 -1 195 -50 358 -178 445 -351 21 -41 39 -77 40 -79 4 -6 81
18 87 27 6 10 -59 137 -95 187 -107 147 -275 262 -446 306 -104 26 -249 32
-344 14z"/>
<path d="M1705 2310 c-158 -34 -293 -133 -362 -268 -27 -52 -28 -53 -9 -68 31
-22 39 -17 65 39 78 167 300 274 486 234 39 -8 71 -14 72 -13 1 0 4 13 8 27 6
23 3 28 -26 38 -44 15 -185 22 -234 11z"/>
<path d="M1297 2208 c-164 -203 -189 -494 -62 -723 18 -33 49 -78 68 -100 l36
-40 27 27 27 26 -36 44 c-96 117 -142 286 -119 440 14 94 62 207 119 276 l35
43 -23 25 c-12 13 -26 24 -30 24 -4 0 -23 -19 -42 -42z"/>
<path d="M2231 2226 l-22 -24 40 -53 c161 -213 159 -504 -7 -707 l-35 -44 27
-26 27 -27 36 40 c166 190 196 498 71 725 -33 59 -94 140 -107 140 -4 0 -18
-11 -30 -24z"/>
<path d="M2201 1587 c-78 -167 -300 -274 -486 -234 -38 8 -71 14 -72 13 -1 0
-4 -13 -8 -27 -6 -24 -3 -28 32 -40 23 -8 78 -13 138 -13 81 1 113 6 165 25
129 49 239 146 294 257 21 43 21 44 2 58 -31 22 -39 17 -65 -39z"/>
<path d="M1083 1535 l-33 -14 18 -38 c45 -99 89 -164 170 -246 128 -131 290
-207 485 -229 86 -10 117 -9 198 5 53 9 107 21 122 26 26 10 26 10 11 54 l-15
44 -67 -18 c-91 -26 -244 -25 -344 0 -196 50 -361 181 -445 353 -22 44 -44 77
-53 77 -8 0 -30 -6 -47 -14z"/>
</g>
</svg>
